# xmcd CD database file
#
# Track frame offsets:
#	150
#	28772
#	34017
#	53926
#	73244
#	110461
#	144134
#	169684
#	189924
#	207718
#	218470
#
# Disc length: 3186 seconds
#
# Revision: 0
# Processed by: cddbd v1.5.2PL0 Copyright (c) Steve Scherf et al.
# Submitted via: CDex 1.70beta2
#
DISCID=9c0c700b
DTITLE=Trio Ifriquiya - Petite planète
DYEAR=2009
DGENRE=Jazz
TTITLE0=Ya Qalbi khelli el Hal
TTITLE1=Samaï
TTITLE2=Meknès café
TTITLE3=Hada al Gharam
TTITLE4=Petite planète
TTITLE5=Ox
TTITLE6=El Chaabi
TTITLE7=Les personnes de la personne
TTITLE8=Ya Badie
TTITLE9=Ya Nass Jarrett el gharayeb
TTITLE10=Istikhbar
EXTD=YEAR: 2009
EXTT0=
EXTT1=
EXTT2=
EXTT3=
EXTT4=
EXTT5=
EXTT6=
EXTT7=
EXTT8=
EXTT9=
EXTT10=
PLAYORDER=
